<svg height="480pt" viewBox="0 -15 480 480" width="480pt" xmlns="http://www.w3.org/2000/svg" xmlns:xlink="http://www.w3.org/1999/xlink"><linearGradient id="a"><stop offset="0" stop-color="#006df0"/><stop offset="1" stop-color="#00e7f0"/></linearGradient><linearGradient id="b" gradientUnits="userSpaceOnUse" x1="237.936" x2="243.968" xlink:href="#a" y1="445.488" y2="-14.944"/><linearGradient id="c" gradientUnits="userSpaceOnUse" x1="90.816" x2="96.848" xlink:href="#a" y1="443.56" y2="-16.872"/><linearGradient id="d" gradientUnits="userSpaceOnUse" x1="378.768" x2="384.8" xlink:href="#a" y1="447.336" y2="-13.096"/><linearGradient id="e" gradientUnits="userSpaceOnUse" x1="80.728" x2="86.76" xlink:href="#a" y1="443.432" y2="-17"/><linearGradient id="f" gradientUnits="userSpaceOnUse" x1="393.656" x2="399.688" xlink:href="#a" y1="447.528" y2="-12.904"/><linearGradient id="g" gradientUnits="userSpaceOnUse" x1="233.304" x2="239.336" xlink:href="#a" y1="445.432" y2="-15"/><linearGradient id="h" gradientUnits="userSpaceOnUse" x1="92.424" x2="98.456" xlink:href="#a" y1="443.584" y2="-16.848"/><linearGradient id="i" gradientUnits="userSpaceOnUse" x1="380.376" x2="386.408" xlink:href="#a" y1="447.352" y2="-13.08"/><linearGradient id="j" gradientUnits="userSpaceOnUse" x1="239.544" x2="245.576" xlink:href="#a" y1="445.512" y2="-14.92"/><path d="m240 336c-26.507812 0-48-21.492188-48-48s21.492188-48 48-48 48 21.492188 48 48c-.027344 26.5-21.5 47.972656-48 48zm0-80c-17.671875 0-32 14.328125-32 32s14.328125 32 32 32 32-14.328125 32-32-14.328125-32-32-32zm0 0" fill="url(#b)"/><path d="m96 96c-26.507812 0-48-21.492188-48-48s21.492188-48 48-48 48 21.492188 48 48c-.027344 26.5-21.5 47.972656-48 48zm0-80c-17.671875 0-32 14.328125-32 32s14.328125 32 32 32 32-14.328125 32-32-14.328125-32-32-32zm0 0" fill="url(#c)"/><path d="m384 96c-26.507812 0-48-21.492188-48-48s21.492188-48 48-48 48 21.492188 48 48c-.027344 26.5-21.5 47.972656-48 48zm0-80c-17.671875 0-32 14.328125-32 32s14.328125 32 32 32 32-14.328125 32-32-14.328125-32-32-32zm0 0" fill="url(#d)"/><path d="m123.695312 380.472656c-52.53125-35.234375-86.0625-92.5625-91.023437-155.625l15.953125-1.28125c4.582031 58.207032 35.53125 111.117188 84.023438 143.632813zm0 0" fill="url(#e)"/><path d="m352.625 382.894531-8.671875-13.4375c50.007813-32.410156 82.253906-86.085937 87.382813-145.457031l15.953124 1.320312c-5.558593 64.316407-40.492187 122.464844-94.664062 157.574219zm0 0" fill="url(#f)"/><path d="m163.273438 31.945312-6.402344-14.664062c52.277344-22.714844 111.574218-23.050781 164.105468-.929688l-6.234374 14.738282c-48.484376-20.414063-103.210938-20.101563-151.460938.855468zm0 0" fill="url(#g)"/><path d="m136 96h-80c-30.914062.035156-55.9648438 25.085938-56 56v37.601562l22.175781 8.070313c47.695313 17.3125 99.953125 17.3125 147.648438 0l22.175781-8.070313v-37.601562c-.035156-30.914062-25.085938-55.964844-56-56zm40 82.398438-11.648438 4.234374c-4.070312 1.480469-8.214843 2.679688-12.351562 3.886719v-50.519531h-16v54.457031c-26.394531 5.378907-53.605469 5.378907-80 0v-54.457031h-16v50.519531c-4.136719-1.207031-8.28125-2.398437-12.351562-3.886719l-11.648438-4.234374v-26.398438c.027344-22.082031 17.917969-39.972656 40-40h80c22.082031.027344 39.972656 17.917969 40 40zm0 0" fill="url(#h)"/><path d="m424 96h-80c-30.914062.035156-55.964844 25.085938-56 56v37.601562l22.175781 8.070313c47.695313 17.3125 99.953125 17.3125 147.648438 0l22.175781-8.070313v-37.601562c-.035156-30.914062-25.085938-55.964844-56-56zm40 82.398438-11.648438 4.234374c-4.070312 1.480469-8.214843 2.679688-12.351562 3.886719v-50.519531h-16v54.457031c-26.394531 5.378907-53.605469 5.378907-80 0v-54.457031h-16v50.519531c-4.136719-1.207031-8.28125-2.398437-12.351562-3.886719l-11.648438-4.234374v-26.398438c.027344-22.082031 17.917969-39.972656 40-40h80c22.082031.027344 39.972656 17.917969 40 40zm0 0" fill="url(#i)"/><path d="m280 336h-80c-30.914062.035156-55.964844 25.085938-56 56v37.601562l22.175781 8.070313c47.695313 17.3125 99.953125 17.3125 147.648438 0l22.175781-8.070313v-37.601562c-.035156-30.914062-25.085938-55.964844-56-56zm40 82.398438-11.648438 4.234374c-4.070312 1.480469-8.214843 2.679688-12.351562 3.886719v-50.519531h-16v54.457031c-26.394531 5.378907-53.605469 5.378907-80 0v-54.457031h-16v50.519531c-4.136719-1.207031-8.28125-2.398437-12.351562-3.886719l-11.648438-4.234374v-26.398438c.027344-22.082031 17.917969-39.972656 40-40h80c22.082031.027344 39.972656 17.917969 40 40zm0 0" fill="url(#j)"/></svg>