<svg id="Icons" fill="#007bff" height="512" viewBox="0 0 74 74" width="512" xmlns="http://www.w3.org/2000/svg"><path d="m51.03 54h-45.44a3.593 3.593 0 0 1 -3.59-3.59v-32.82a3.593 3.593 0 0 1 3.59-3.59h53.55a3.593 3.593 0 0 1 3.59 3.59v24.65a1 1 0 0 1 -2 0v-24.65a1.591 1.591 0 0 0 -1.59-1.59h-53.55a1.591 1.591 0 0 0 -1.59 1.59v32.82a1.591 1.591 0 0 0 1.59 1.59h45.44a1 1 0 0 1 0 2z"/><path d="m61.728 28.955h-58.728a1 1 0 0 1 -1-1v-6.141a1 1 0 0 1 1-1h58.728a1 1 0 0 1 1 1v6.141a1 1 0 0 1 -1 1zm-57.728-2h56.728v-4.141h-56.728z"/><path d="m23.98 45.8h-11.846a1 1 0 0 1 -1-1v-6.05a1 1 0 0 1 1-1h11.846a1 1 0 0 1 1 1v6.05a1 1 0 0 1 -1 1zm-10.846-2h9.846v-4.05h-9.846z"/><path d="m61 63.208a11 11 0 1 1 11-11 11.013 11.013 0 0 1 -11 11zm0-20a9 9 0 1 0 9 9 9.01 9.01 0 0 0 -9-9z"/><path d="m59.406 55.864a1 1 0 0 1 -.707-.293l-2.125-2.125a1 1 0 0 1 1.414-1.414l1.418 1.418 4.606-4.605a1 1 0 0 1 1.414 1.414l-5.313 5.312a.993.993 0 0 1 -.707.293z"/></svg>