<svg id="Layer_1" data-name="Layer 1" xmlns="http://www.w3.org/2000/svg" viewBox="0 0 500 500"><defs><style>.cls-1{fill:#fff;}</style></defs><path class="cls-1" d="M346.36,366.84a143,143,0,0,1-181.63-.74c5.7-42.35,44.17-75.1,90.77-75.1C302.37,291,341,324.13,346.36,366.84Z"/><circle class="cls-1" cx="256" cy="234" r="44"/><circle class="cls-1" cx="348" cy="256" r="29"/><circle class="cls-1" cx="164" cy="256" r="29"/><path class="cls-1" d="M256.5,97C167.79,97,95.88,168,95.88,255.5a156.13,156.13,0,0,0,13.56,63.83,59.07,59.07,0,0,1,11.91-11.71,140.37,140.37,0,0,1-10-52.12c0-78.65,64.61-142.41,144.31-142.41S400,176.85,400,255.5,335.39,397.91,255.69,397.91a144.8,144.8,0,0,1-102.31-42,90.09,90.09,0,0,0-1.29,20A161.26,161.26,0,0,0,256.5,414c88.71,0,160.62-71,160.62-158.5S345.21,97,256.5,97Z"/><path class="cls-1" d="M189.35,298.38A90.7,90.7,0,0,0,152.09,376a159.12,159.12,0,0,1-42.65-56.62,59.07,59.07,0,0,1,11.91-11.71A71.45,71.45,0,0,1,164,294,74.48,74.48,0,0,1,189.35,298.38Z"/><path class="cls-1" d="M319.87,297.52a90.7,90.7,0,0,1,37.26,77.57,159.12,159.12,0,0,0,42.65-56.62,59.07,59.07,0,0,0-11.91-11.71,71.45,71.45,0,0,0-42.65-13.62A74.48,74.48,0,0,0,319.87,297.52Z"/></svg>