<svg height="484pt" viewBox="-42 0 484 484.12776" width="484pt" xmlns="http://www.w3.org/2000/svg" xmlns:xlink="http://www.w3.org/1999/xlink"><linearGradient id="a"><stop offset="0" stop-color="#006df0"/><stop offset="1" stop-color="#00e7f0"/></linearGradient><linearGradient id="b" gradientUnits="userSpaceOnUse" x1="200.06388" x2="200.06388" xlink:href="#a" y1="498.20776" y2="-10.83224"/><linearGradient id="c" gradientUnits="userSpaceOnUse" x1="184.06388" x2="184.06388" xlink:href="#a" y1="498.20776" y2="-10.83224"/><path d="m312.0625 116.128906h-48.101562c-1.925782-2.539062-4.144532-4.839844-6.617188-6.847656l21.648438-37.5625c2.203124-3.824219.894531-8.710938-2.929688-10.917969l-20.796875-12 12-20.800781c2.207031-3.828125.894531-8.71875-2.929687-10.929688l-27.710938-16c-3.828125-2.207031-8.71875-.898437-10.929688 2.929688l-12 20.800781-20.757812-12c-3.828125-2.210937-8.71875-.898437-10.929688 2.925781l-88 152.402344c-2.207031 3.824219-.898437 8.71875 2.929688 10.925782l20.796875 12-12 20.800781c-2.207031 3.828125-.898437 8.71875 2.929687 10.929687l27.710938 16c3.828125 2.207032 8.71875.898438 10.929688-2.929687l12-20.800781 20.800781 12c1.203125.695312 2.566406 1.066406 3.957031 1.074218.699219-.003906 1.398438-.09375 2.074219-.273437 2.046875-.550781 3.792969-1.890625 4.855469-3.726563l26.945312-46.707031c16.59375 6.488281 35.476562 1.039063 46.0625-13.292969h48.0625c22.082031.023438 39.976562 17.917969 40 40v80c-.023438 22.078125-17.917969 39.972656-40 40h-60.253906c-3.5625-10.105468-9.296875-19.308594-16.800782-26.960937-26.015624-26.007813-67.46875-28.183594-96.0625-5.039063h-114.882812c-4.417969 0-8 3.582032-8 8v32c0 4.417969 3.582031 8 8 8h88.503906c-.3125 2.652344-.480468 5.324219-.503906 8v56h-88c-13.253906 0-24 10.742188-24 24v32c0 13.253906 10.746094 24 24 24h320c13.257812 0 24-10.746094 24-24v-32c0-13.257812-10.742188-24-24-24h-88v-32h56c48.578125-.058594 87.945312-39.425781 88-88v-80c-.054688-48.578125-39.421875-87.945312-88-88zm-76.496094-97.199218 13.859375 8-8 13.847656-13.859375-8zm-98.140625 202-13.859375-8 8-13.859376 13.859375 8zm43.710938-11.714844-69.265625-40 80-138.542969 69.273437 40-17.878906 31.054687c-.242187-.070312-.496094-.09375-.738281-.160156-1.144532-.3125-2.3125-.550781-3.488282-.796875-.550781-.097656-1.101562-.226562-1.671874-.304687-1.757813-.226563-3.53125-.339844-5.304688-.335938-11.910156-.101562-23.234375 5.15625-30.847656 14.320313-7.609375 9.160156-10.699219 21.261719-8.414063 32.949219.085938.488281.167969.976562.277344 1.457031.496094 2.269531 1.1875 4.488281 2.074219 6.632812.160156.390625.359375.757813.535156 1.144531.875 1.945313 1.910156 3.820313 3.089844 5.597657.191406.289062.351562.585937.542968.867187 1.347657 1.890625 2.855469 3.660156 4.511719 5.285156.183594.183594.3125.417969.503907.59375zm50.925781-45.085938c-4.613281-.019531-9.125-1.347656-13.015625-3.832031-8.945313-5.769531-13.019531-16.742187-10.011719-26.953125 3.011719-10.210938 12.382813-17.21875 23.027344-17.214844 8.550781.058594 16.433594 4.617188 20.746094 12 4.28125 7.417969 4.285156 16.558594.007812 23.980469s-12.183594 12.003906-20.753906 12.019531zm-200 144h92.128906c-.296875.4375-.511718.917969-.800781 1.359375-.628906.984375-1.183594 2-1.757813 3.015625-1.082031 1.894532-2.097656 3.824219-3 5.808594-.511718 1.121094-.992187 2.238281-1.441406 3.382812-.328125.800782-.742187 1.601563-1.039062 2.402344h-84.089844zm320 120v32c0 4.417969-3.582031 8-8 8h-320c-4.417969 0-8-3.582031-8-8v-32c0-4.417968 3.582031-8 8-8h320c4.417969 0 8 3.582032 8 8zm-224-24v-56c-.027344-7.53125 1.484375-14.988281 4.449219-21.914062 7.292969-17.117188 22.601562-29.5 40.863281-33.054688 18.261719-3.554687 37.101562 2.179688 50.28125 15.3125 7.039062 7.105469 12.089844 15.929688 14.648438 25.597656 1.160156 4.597657 1.75 9.316407 1.757812 14.058594v56zm256-120c-.042969 39.746094-32.253906 71.953125-72 72h-56v-8c0-2.675781-.148438-5.34375-.445312-8h56.445312c30.914062-.035156 55.964844-25.085937 56-56v-80c-.035156-30.914062-25.085938-55.964844-56-56h-40.796875c.0625-.296875.039063-.601562.09375-.898437.972656-4.683594.972656-9.519531 0-14.207031-.054687-.296876 0-.601563-.09375-.894532h40.796875c39.746094.042969 71.957031 32.253906 72 72zm0 0" fill="url(#b)"/><path d="m184.0625 308.128906c-22.089844 0-40 17.90625-40 40 0 22.089844 17.910156 40 40 40 22.09375 0 40-17.910156 40-40-.023438-22.082031-17.917969-39.976562-40-40zm0 64c-13.253906 0-24-10.746094-24-24 0-13.257812 10.746094-24 24-24 13.257812 0 24 10.742188 24 24 0 13.253906-10.742188 24-24 24zm0 0" fill="url(#c)"/></svg>