<svg height="480pt" viewBox="0 0 480 480" width="480pt" xmlns="http://www.w3.org/2000/svg" xmlns:xlink="http://www.w3.org/1999/xlink"><linearGradient id="a"><stop offset="0" stop-color="#006df0"/><stop offset="1" stop-color="#00e7f0"/></linearGradient><linearGradient id="b" gradientUnits="userSpaceOnUse" x1="113.224" x2="91.064" xlink:href="#a" y1="493.744" y2="2.576"/><linearGradient id="c" gradientUnits="userSpaceOnUse" x1="100.072" x2="77.92" xlink:href="#a" y1="494.336" y2="3.168"/><linearGradient id="d" gradientUnits="userSpaceOnUse" x1="255.296" x2="233.136" xlink:href="#a" y1="487.336" y2="-3.832"/><linearGradient id="e" gradientUnits="userSpaceOnUse" x1="357.176" x2="335.016" xlink:href="#a" y1="482.736" y2="-8.432"/><path d="m96 160c26.507812 0 48-21.492188 48-48s-21.492188-48-48-48-48 21.492188-48 48c.027344 26.5 21.5 47.972656 48 48zm0-80c17.671875 0 32 14.328125 32 32s-14.328125 32-32 32-32-14.328125-32-32 14.328125-32 32-32zm0 0" fill="url(#b)"/><path d="m88 328h16v152h-16zm0 0" fill="url(#c)"/><path d="m480 0h-336v48h16v128h-120c-22.082031.027344-39.9726562 17.917969-40 40v80c0 13.253906 10.746094 24 24 24h16v160h16v-256h-16v80h-16c-4.417969 0-8-3.582031-8-8v-80c0-13.253906 10.746094-24 24-24h192c0 13.253906-10.746094 24-24 24h-72v264h16v-248h8v24c0 13.253906 10.746094 24 24 24h96v8c.015625 11.523438 8.21875 21.414062 19.542969 23.550781l-74.742188 157.007813 14.445313 6.882812 64.800781-136v140.558594h16v-140.585938l64.800781 136 14.449219-6.878906-74.839844-156.984375c11.324219-2.136719 19.527344-12.027343 19.542969-23.550781v-8h96c13.253906 0 24-10.746094 24-24v-208h16zm-152 288c0 4.417969-3.582031 8-8 8h-16c-4.417969 0-8-3.582031-8-8v-8h32zm120-32c0 4.417969-3.582031 8-8 8h-256c-4.417969 0-8-3.582031-8-8v-24h32c22.082031-.027344 39.972656-17.917969 40-40v-16h-72v-128h272zm16-224h-304v-16h304zm0 0" fill="url(#d)"/><path d="m293.902344 230.769531 15.511718-38.769531h31.859376l24-56h31.007812l34.375-51.558594-13.3125-8.882812-29.625 44.441406h-32.992188l-24 56h-32.140624l-16.488282 41.230469-28.035156 7.007812 3.875 15.523438zm0 0" fill="url(#e)"/></svg>